<svg width="24" height="24" viewBox="0 0 24 24" fill="none" xmlns="http://www.w3.org/2000/svg">
<path d="M3.75001 12C3.74979 10.5517 4.13082 9.12887 4.85482 7.87453C5.57882 6.62019 6.62026 5.57855 7.87446 4.85431C9.12865 4.13007 10.5514 3.74875 11.9997 3.74869C13.448 3.74864 14.8708 4.12984 16.125 4.85398C16.2972 4.95187 16.5011 4.97769 16.6922 4.9258C16.8833 4.8739 17.0462 4.74852 17.1452 4.57701C17.2442 4.40549 17.2714 4.20177 17.2208 4.0103C17.1702 3.81882 17.0459 3.65515 16.875 3.55498C15.0163 2.48186 12.8554 2.05202 10.7275 2.33212C8.59964 2.61223 6.62362 3.58664 5.10594 5.10422C3.58826 6.6218 2.61373 8.59776 2.33349 10.7256C2.05324 12.8535 2.48294 15.0144 3.55595 16.8732C4.62896 18.732 6.28531 20.1848 8.26813 21.0063C10.2509 21.8278 12.4494 21.972 14.5226 21.4168C16.5958 20.8615 18.4278 19.6376 19.7345 17.935C21.0413 16.2324 21.7497 14.1462 21.75 12C21.75 11.8011 21.671 11.6103 21.5303 11.4697C21.3897 11.329 21.1989 11.25 21 11.25C20.8011 11.25 20.6103 11.329 20.4697 11.4697C20.329 11.6103 20.25 11.8011 20.25 12C20.25 14.188 19.3808 16.2864 17.8336 17.8336C16.2865 19.3808 14.1881 20.25 12 20.25C9.81198 20.25 7.71356 19.3808 6.16638 17.8336C4.61921 16.2864 3.75001 14.188 3.75001 12Z" fill="#3F56E3"/>
<path d="M23.031 5.03097C23.1007 4.96124 23.156 4.87846 23.1938 4.78735C23.2315 4.69624 23.2509 4.59859 23.2509 4.49997C23.2509 4.40135 23.2315 4.3037 23.1938 4.2126C23.156 4.12149 23.1007 4.0387 23.031 3.96897C22.9612 3.89924 22.8785 3.84392 22.7873 3.80619C22.6962 3.76845 22.5986 3.74902 22.5 3.74902C22.4014 3.74902 22.3037 3.76845 22.2126 3.80619C22.1215 3.84392 22.0387 3.89924 21.969 3.96897L12 13.9395L8.03097 9.96897C7.96124 9.89924 7.87846 9.84392 7.78735 9.80619C7.69624 9.76845 7.59859 9.74902 7.49997 9.74902C7.40136 9.74902 7.3037 9.76845 7.2126 9.80619C7.12149 9.84392 7.0387 9.89924 6.96897 9.96897C6.89924 10.0387 6.84392 10.1215 6.80619 10.2126C6.76845 10.3037 6.74902 10.4014 6.74902 10.5C6.74902 10.5986 6.76845 10.6962 6.80619 10.7873C6.84392 10.8785 6.89924 10.9612 6.96897 11.031L11.469 15.531C11.5386 15.6008 11.6214 15.6562 11.7125 15.694C11.8036 15.7318 11.9013 15.7513 12 15.7513C12.0986 15.7513 12.1963 15.7318 12.2874 15.694C12.3785 15.6562 12.4613 15.6008 12.531 15.531L23.031 5.03097Z" fill="#3F56E3"/>
</svg>
