<svg width="63" height="24" viewBox="0 0 63 24" fill="none" xmlns="http://www.w3.org/2000/svg">
<path d="M12 24C8.8174 24 5.76508 22.7358 3.51465 20.4854C1.26421 18.2349 -4.02525e-10 15.1826 0 12C2.78232e-07 8.8174 1.26421 5.76508 3.51465 3.51465C5.76508 1.26421 8.8174 0 12 0V24Z" fill="#3F56E3"/>
<circle cx="6.56472" cy="11.9204" r="1.82888" fill="#1E1E1E"/>
<path d="M6.56445 6.43372C9.27313 6.43372 11.5226 8.39677 11.9697 10.9777H18.7949V10.9796C19.2731 10.9795 19.7493 11.0712 20.1953 11.256C20.8635 11.5328 21.4351 12.0022 21.8369 12.6036C22.2386 13.205 22.4531 13.9127 22.4531 14.6359H20.6523C20.6523 13.6259 19.8341 12.807 18.8242 12.8068C17.8142 12.8068 16.9951 13.6258 16.9951 14.6359C16.9955 15.6359 17.7985 16.4465 18.7949 16.462V18.2931C18.0719 18.293 17.3649 18.0785 16.7637 17.6769C16.1623 17.275 15.6929 16.7035 15.416 16.0353C15.1392 15.367 15.067 14.6314 15.208 13.922C15.2866 13.527 15.4315 13.1508 15.6309 12.8058H11.9795C11.5559 15.4148 9.29303 17.4074 6.56445 17.4074C3.53441 17.4072 1.07812 14.9501 1.07812 11.92C1.07829 8.89011 3.53451 6.43389 6.56445 6.43372ZM6.56445 8.26282C4.54457 8.26299 2.90739 9.90017 2.90723 11.92C2.90723 13.9401 4.54447 15.5781 6.56445 15.5783C8.27911 15.5783 9.71815 14.398 10.1143 12.8058H11.9658V10.9777H10.0996C9.68368 9.41451 8.25859 8.26282 6.56445 8.26282Z" fill="#1E1E1E"/>
<path d="M29.1938 10.3812C29.8188 10.3812 30.3219 10.5687 30.7031 10.9437C31.0906 11.3187 31.2844 11.875 31.2844 12.6125V15.5H29.8219V12.8375C29.8219 12.4375 29.7344 12.1406 29.5594 11.9469C29.3844 11.7469 29.1313 11.6469 28.8 11.6469C28.4313 11.6469 28.1375 11.7625 27.9188 11.9937C27.7 12.2187 27.5906 12.5562 27.5906 13.0062V15.5H26.1281V10.4562H27.525V11.0469C27.7188 10.8344 27.9594 10.6719 28.2469 10.5594C28.5344 10.4406 28.85 10.3812 29.1938 10.3812ZM32.7976 10.4562H34.2601V15.5H32.7976V10.4562ZM33.5288 9.75312C33.2601 9.75312 33.0413 9.675 32.8726 9.51875C32.7038 9.3625 32.6194 9.16875 32.6194 8.9375C32.6194 8.70625 32.7038 8.5125 32.8726 8.35625C33.0413 8.2 33.2601 8.12187 33.5288 8.12187C33.7976 8.12187 34.0163 8.19687 34.1851 8.34687C34.3538 8.49687 34.4382 8.68437 34.4382 8.90937C34.4382 9.15312 34.3538 9.35625 34.1851 9.51875C34.0163 9.675 33.7976 9.75312 33.5288 9.75312ZM38.2424 15.575C37.7049 15.575 37.2205 15.4656 36.7893 15.2469C36.3643 15.0219 36.0299 14.7125 35.7861 14.3187C35.5486 13.925 35.4299 13.4781 35.4299 12.9781C35.4299 12.4781 35.5486 12.0312 35.7861 11.6375C36.0299 11.2437 36.3643 10.9375 36.7893 10.7187C37.2205 10.4937 37.7049 10.3812 38.2424 10.3812C38.7736 10.3812 39.2361 10.4937 39.6299 10.7187C40.0299 10.9375 40.3205 11.2531 40.5018 11.6656L39.3674 12.275C39.1049 11.8125 38.7268 11.5812 38.233 11.5812C37.8518 11.5812 37.5361 11.7062 37.2861 11.9562C37.0361 12.2062 36.9111 12.5469 36.9111 12.9781C36.9111 13.4094 37.0361 13.75 37.2861 14C37.5361 14.25 37.8518 14.375 38.233 14.375C38.733 14.375 39.1111 14.1437 39.3674 13.6812L40.5018 14.3C40.3205 14.7 40.0299 15.0125 39.6299 15.2375C39.2361 15.4625 38.7736 15.575 38.2424 15.575ZM44.0079 14.4031C44.2704 14.4031 44.5016 14.3656 44.7016 14.2906C44.9079 14.2094 45.0985 14.0844 45.2735 13.9156L46.0516 14.7594C45.5766 15.3031 44.8829 15.575 43.9704 15.575C43.4016 15.575 42.8985 15.4656 42.461 15.2469C42.0235 15.0219 41.686 14.7125 41.4485 14.3187C41.211 13.925 41.0922 13.4781 41.0922 12.9781C41.0922 12.4844 41.2079 12.0406 41.4391 11.6469C41.6766 11.2469 41.9985 10.9375 42.4047 10.7187C42.8172 10.4937 43.2797 10.3812 43.7922 10.3812C44.2735 10.3812 44.711 10.4844 45.1047 10.6906C45.4985 10.8906 45.811 11.1844 46.0422 11.5719C46.2797 11.9531 46.3985 12.4062 46.3985 12.9312L42.6672 13.6531C42.7735 13.9031 42.9391 14.0906 43.1641 14.2156C43.3954 14.3406 43.6766 14.4031 44.0079 14.4031ZM43.7922 11.4875C43.4235 11.4875 43.1235 11.6062 42.8922 11.8437C42.661 12.0812 42.5391 12.4094 42.5266 12.8281L44.9829 12.35C44.9141 12.0875 44.7735 11.8781 44.561 11.7219C44.3485 11.5656 44.0922 11.4875 43.7922 11.4875ZM50.6065 15.2562C50.4628 15.3625 50.2847 15.4437 50.0722 15.5C49.8659 15.55 49.6503 15.575 49.4253 15.575C48.819 15.575 48.3534 15.4219 48.0284 15.1156C47.7034 14.8094 47.5409 14.3594 47.5409 13.7656V9.34062H49.0034V10.5687H50.2503V11.6937H49.0034V13.7469C49.0034 13.9594 49.0565 14.125 49.1628 14.2437C49.269 14.3562 49.4222 14.4125 49.6222 14.4125C49.8472 14.4125 50.0472 14.35 50.2222 14.225L50.6065 15.2562ZM53.0169 11.1219C53.1919 10.8781 53.4263 10.6937 53.7201 10.5687C54.0201 10.4437 54.3638 10.3812 54.7513 10.3812V11.7312C54.5888 11.7187 54.4794 11.7125 54.4232 11.7125C54.0044 11.7125 53.6763 11.8312 53.4388 12.0687C53.2013 12.3 53.0826 12.65 53.0826 13.1187V15.5H51.6201V10.4562H53.0169V11.1219ZM60.9263 10.4562V14.6562C60.9263 15.5813 60.6919 16.2688 60.2232 16.7188C59.7544 17.1688 59.0732 17.3938 58.1794 17.3938C57.7044 17.3938 57.2544 17.3344 56.8294 17.2156C56.4107 17.0969 56.0575 16.925 55.77 16.7L56.3513 15.65C56.5638 15.825 56.8232 15.9625 57.1294 16.0625C57.4357 16.1625 57.745 16.2125 58.0575 16.2125C58.545 16.2125 58.9013 16.1 59.1263 15.875C59.3513 15.65 59.4638 15.3063 59.4638 14.8437V14.675C59.2763 14.8625 59.0544 15.0062 58.7982 15.1062C58.5419 15.2062 58.2669 15.2562 57.9732 15.2562C57.3107 15.2562 56.7857 15.0687 56.3982 14.6937C56.0107 14.3125 55.8169 13.7437 55.8169 12.9875V10.4562H57.2794V12.7719C57.2794 13.5906 57.62 14 58.3013 14C58.6513 14 58.9325 13.8875 59.145 13.6625C59.3575 13.4312 59.4638 13.0906 59.4638 12.6406V10.4562H60.9263Z" fill="#3F56E3"/>
<g clip-path="url(#clip0_1_2544)">
<path d="M6.56445 6.44531C9.27313 6.44531 11.5226 8.40837 11.9697 10.9893H18.7949L19.0654 10.999C19.6935 11.0456 20.301 11.254 20.8271 11.6055C21.4285 12.0074 21.898 12.5788 22.1748 13.2471C22.4515 13.9153 22.5239 14.651 22.3828 15.3604C22.2416 16.0698 21.8933 16.7219 21.3818 17.2334C20.8703 17.7449 20.2183 18.0932 19.5088 18.2344C18.7994 18.3755 18.0638 18.3031 17.3955 18.0264C16.7272 17.7496 16.1558 17.2801 15.7539 16.6787C15.3522 16.0773 15.1377 15.3697 15.1377 14.6465H16.9951C16.9953 15.6564 17.8142 16.4756 18.8242 16.4756C19.834 16.4754 20.6522 15.6563 20.6523 14.6465C20.6521 13.6368 19.8339 12.8186 18.8242 12.8184C18.8146 12.8184 18.8045 12.8192 18.7949 12.8193V12.8174H11.9795C11.5559 15.4264 9.29303 17.4189 6.56445 17.4189C3.53441 17.4188 1.07812 14.9617 1.07812 11.9316C1.07829 8.9017 3.53451 6.44548 6.56445 6.44531ZM6.56445 8.27441C4.54457 8.27458 2.90739 9.91176 2.90723 11.9316C2.90723 13.9517 4.54447 15.5897 6.56445 15.5898C8.27911 15.5898 9.71815 14.4096 10.1143 12.8174H11.9658V10.9893H10.0996C9.68368 9.4261 8.25859 8.27441 6.56445 8.27441Z" fill="#3F56E3"/>
</g>
<defs>
<clipPath id="clip0_1_2544">
<rect width="10.4766" height="11.8594" fill="white" transform="translate(11.9766 6.44531)"/>
</clipPath>
</defs>
</svg>
