<svg width="40" height="40" viewBox="0 0 40 40" fill="none" xmlns="http://www.w3.org/2000/svg">
<g clip-path="url(#clip0_1_9732)">
<path d="M36.5476 37.1034L28.3429 34.6605L22.1556 38.3592L17.8385 38.3573L11.6475 34.6605L3.44658 37.1034L0.952148 28.682L3.44685 19.3355L0.952148 11.4334L3.44685 1.63943L16.2613 9.2955H23.7328L36.5476 1.63943L39.0423 11.4334L36.5476 19.3355L39.0423 28.682L36.5476 37.1034Z" fill="#FF5C16"/>
<path d="M3.44873 1.63943L16.2635 9.30087L15.754 14.5588L3.44873 1.63943ZM11.6499 28.6854L17.2883 32.9805L11.6499 34.6602V28.6854ZM16.8376 21.5844L15.754 14.5626L8.81748 19.3376L8.81372 19.3357V19.3392L8.83518 24.2543L11.6481 21.5847L16.8376 21.5844ZM36.5479 1.63943L23.7331 9.30087L24.2409 14.5588L36.5479 1.63943ZM28.3469 28.6854L22.7083 32.9805L28.3469 34.6602V28.6854ZM31.1813 19.339V19.3355L31.1796 19.3374L24.2428 14.5626L23.1593 21.5844H28.3466L31.1614 24.2538L31.1813 19.339Z" fill="#FF5C16"/>
<path d="M11.6478 34.6602L3.44685 37.1032L0.952148 28.6855H11.6478V34.6602ZM16.8354 21.5826L18.4019 31.7342L16.2308 26.0896L8.83142 24.2538L11.6459 21.5828L16.8354 21.5826ZM28.3464 34.6602L36.5476 37.1032L39.0423 28.6852H28.3464C28.3464 28.6855 28.3464 34.6602 28.3464 34.6602ZM23.159 21.5826L21.5925 31.7342L23.7634 26.0896L31.1633 24.2538L28.3469 21.5828L23.159 21.5826Z" fill="#E34807"/>
<path d="M0.952148 28.682L3.44685 19.3355H8.81157L8.83116 24.2522L16.2313 26.088L18.4022 31.7323L17.2862 32.9752L11.6478 28.6801H0.952148V28.682ZM39.0423 28.682L36.5476 19.3355H31.1826L31.163 24.2522L23.7634 26.088L21.5923 31.7323L22.708 32.9752L28.3466 28.6801H39.0423V28.682ZM23.7328 9.2955H16.2613L15.754 14.5534L18.4025 31.7266H21.5925L24.2426 14.5534L23.7328 9.2955Z" fill="#FF8D5D"/>
<path d="M3.44685 1.63943L0.952148 11.4334L3.44685 19.3355H8.81157L15.7519 14.5591L3.44685 1.63943ZM15.2851 23.6215H12.8548L11.5316 24.9186L16.2329 26.084L15.2851 23.6196V23.6215ZM36.5476 1.63943L39.0423 11.4334L36.5476 19.3355H31.1826L24.2426 14.5591L36.5476 1.63943ZM24.7128 23.6215H27.1467L28.4698 24.9202L23.7631 26.088L24.7128 23.6196V23.6215ZM22.1538 35.009L22.7083 32.9789L21.5923 31.736H18.3998L17.284 32.9789L17.8383 35.009" fill="#661800"/>
<path d="M22.1538 35.0087V38.3608H17.8389V35.0087H22.1538Z" fill="#C0C4CD"/>
<path d="M11.6499 34.6567L17.8425 38.3589V35.0068L17.288 32.9771L11.6499 34.6567ZM28.3469 34.6567L22.154 38.3589V35.0068L22.7085 32.9771L28.3469 34.6567Z" fill="#E7EBF6"/>
</g>
<defs>
<clipPath id="clip0_1_9732">
<rect width="38.0952" height="36.7211" fill="white" transform="translate(0.952148 1.63943)"/>
</clipPath>
</defs>
</svg>
